<svg width="32" height="33" viewBox="0 0 32 33" fill="none" xmlns="http://www.w3.org/2000/svg">
<path d="M5.5 26.5V27H6H26H26.5V26.5V6.5V6H26H6H5.5V6.5V26.5ZM6 5H26C26.3978 5 26.7794 5.15804 27.0607 5.43934C27.342 5.72064 27.5 6.10218 27.5 6.5V26.5C27.5 26.8978 27.342 27.2794 27.0607 27.5607C26.7794 27.842 26.3978 28 26 28H6C5.60218 28 5.22064 27.842 4.93934 27.5607C4.65804 27.2794 4.5 26.8978 4.5 26.5V6.5C4.5 6.10218 4.65804 5.72064 4.93934 5.43934C5.22064 5.15804 5.60218 5 6 5Z" fill="white" stroke="white"/>
</svg>
