<svg width="143" height="43" viewBox="0 0 143 43" fill="none" xmlns="http://www.w3.org/2000/svg">
<path d="M125.001 32.6373L125.004 32.6389C126.948 33.6809 129.14 34.1963 131.571 34.1963C133.733 34.1963 135.675 33.7689 137.385 32.9009L137.388 32.8994C139.129 32.0007 140.482 30.7215 141.433 29.066L141.675 28.6461L141.263 28.3915L138.076 26.4226L137.666 26.1695L137.398 26.5693C136.714 27.5883 135.875 28.3408 134.882 28.8411C133.881 29.3452 132.765 29.6009 131.527 29.6009C130.089 29.6009 128.805 29.2902 127.662 28.6772C126.553 28.0666 125.674 27.2067 125.021 26.0887C124.4 24.9465 124.082 23.6205 124.082 22.0968C124.082 20.6012 124.4 19.3041 125.021 18.1906C125.675 17.0424 126.554 16.1691 127.662 15.5593C128.805 14.9464 130.089 14.6356 131.527 14.6356C132.765 14.6356 133.881 14.8913 134.882 15.3954C135.875 15.8957 136.714 16.6482 137.398 17.6672L137.669 18.0709L138.08 17.8114L141.267 15.7997L141.673 15.5436L141.433 15.1277C140.481 13.4712 139.127 12.2051 137.383 11.3348C135.674 10.4673 133.732 10.0402 131.571 10.0402C129.141 10.0402 126.949 10.5554 125.005 11.597C123.092 12.6095 121.584 14.0429 120.489 15.891C119.391 17.7164 118.847 19.7899 118.847 22.0968C118.847 24.4046 119.391 26.4914 120.488 28.344L120.49 28.3471C121.585 30.166 123.092 31.5973 125.001 32.6373Z" fill="#F0803C" stroke="#F0803C"/>
<path d="M113.921 10.7542V10.2542H113.421H109.23H108.73V10.7542V21.2836C108.73 23.5916 108.115 25.3056 106.951 26.4988C105.783 27.6955 104.177 28.3169 102.07 28.3169C100.157 28.3169 98.7612 27.7896 97.8044 26.8022C96.8453 25.7841 96.3276 24.2713 96.3276 22.1825V10.7542V10.2542H95.8276H91.6367H91.1367V10.7542V22.6533C91.1367 25.9958 92.0509 28.6025 93.9587 30.3811C95.8497 32.144 98.4142 32.9979 101.59 32.9979C103.224 32.9979 104.746 32.701 106.152 32.1018L106.152 32.1019L106.16 32.0982C107.138 31.6603 107.996 31.0965 108.73 30.4064V30.7858C108.73 33.2879 108.147 35.0339 107.081 36.13L107.081 36.1299L107.077 36.1341C106.015 37.2521 104.311 37.8619 101.852 37.8619C100.306 37.8619 98.8354 37.6141 97.4361 37.1204C96.0647 36.6263 94.9003 35.9444 93.935 35.079L93.4995 34.6886L93.1816 35.1794L91.1298 38.3468L90.8989 38.7032L91.2132 38.9887C92.4706 40.1314 94.0668 40.9907 95.9845 41.5786C97.9263 42.1934 99.9557 42.5001 102.07 42.5001C105.931 42.5001 108.919 41.5243 110.937 39.4854C112.96 37.471 113.921 34.3922 113.921 30.3578V10.7542Z" fill="#F0803C" stroke="#F0803C"/>
<path d="M70.4688 33.9396H70.9688V33.4396V24.3518H75.0325L82.653 33.7544L82.8031 33.9396H83.0415H87.9745H89.0127L88.3654 33.1278L79.2292 21.6701L87.753 11.0675L88.4068 10.2542H87.3633H82.8668H82.6233L82.4732 10.4459L75.1147 19.842H70.9688V10.7542V10.2542H70.4688H66.2779H65.7779V10.7542V33.4396V33.9396H66.2779H70.4688Z" fill="#F0803C" stroke="#F0803C"/>
<path d="M18.7239 42.2432H19.2239V41.7432V34.2098C23.4047 33.9224 26.7251 32.7821 29.1319 30.7389C31.6446 28.6057 32.888 25.6907 32.888 22.0541C32.888 18.4453 31.6439 15.5707 29.1279 13.4943C26.7215 11.4807 23.4025 10.3557 19.2239 10.0695V1.68005V1.18005H18.7239H14.6204H14.1204V1.68005V10.0693C9.91618 10.354 6.59584 11.4642 4.21554 13.4522C1.72742 15.5303 0.5 18.4197 0.5 22.0541C0.5 25.7157 1.72628 28.6451 4.21016 30.7798L4.21014 30.7798L4.21514 30.784C6.62165 32.7982 9.9411 33.9236 14.1204 34.2098V41.7432V42.2432H14.6204H18.7239ZM25.5186 16.873L25.5186 16.873L25.5227 16.8764C26.9885 18.0784 27.7407 19.7804 27.7407 22.0541C27.7407 24.3904 26.9917 26.1406 25.5377 27.3765C24.1505 28.5557 22.0665 29.3142 19.2239 29.5979V14.7174C22.0402 14.9632 24.1184 15.6998 25.5186 16.873ZM7.83141 27.3684C6.38816 26.1097 5.64723 24.3602 5.64723 22.0541C5.64723 19.8081 6.38586 18.1017 7.82917 16.8701C9.20072 15.6996 11.2759 14.9625 14.1204 14.717V29.5618C11.3073 29.3147 9.23123 28.5653 7.83141 27.3684Z" fill="#F0803C" stroke="#F0803C"/>
<path d="M38.8683 28.1585L38.8683 28.1585C37.9554 26.5435 37.5038 24.7266 37.5038 22.7203C37.5038 20.7142 37.9553 18.9082 38.8701 17.3162L38.8714 17.314L38.8714 17.314C39.8085 15.7023 41.1006 14.4507 42.7404 13.5663C44.3808 12.6569 46.2226 12.207 48.254 12.207C50.2845 12.207 52.1149 12.6566 53.7319 13.5672C55.3707 14.4513 56.6506 15.703 57.563 17.3151C58.5027 18.907 58.9671 20.7134 58.9671 22.7203C58.9671 24.7287 58.5021 26.547 57.563 28.1626M38.8683 28.1585L57.1301 27.9124M38.8683 28.1585L38.8732 28.1668C39.8106 29.753 41.1016 31.0023 42.7377 31.9099C44.3788 32.8203 46.2215 33.2707 48.254 33.2707C50.2857 33.2707 52.1169 32.8206 53.7346 31.9091M38.8683 28.1585L53.4905 31.4727M57.563 28.1626C57.5628 28.163 57.5625 28.1634 57.5623 28.1637L57.1301 27.9124M57.563 28.1626C57.5632 28.1622 57.5634 28.1619 57.5636 28.1615L57.1301 27.9124M57.563 28.1626C56.6502 29.7508 55.3708 31.001 53.7346 31.9091M57.1301 27.9124C56.2635 29.4206 55.0503 30.6074 53.4905 31.4727M53.7346 31.9091C53.7351 31.9088 53.7355 31.9085 53.736 31.9083L53.4905 31.4727M53.7346 31.9091C53.7341 31.9094 53.7336 31.9096 53.7331 31.9099L53.4905 31.4727M53.5697 19.359L53.5697 19.3591L53.572 19.3634C54.0954 20.3178 54.3646 21.432 54.3646 22.7203C54.3646 24.0075 54.0959 25.1353 53.5709 26.1165C53.045 27.0745 52.3178 27.823 51.383 28.3698C50.4766 28.8899 49.4381 29.1555 48.254 29.1555C47.072 29.1555 46.0206 28.8908 45.088 28.3698C44.1787 27.8236 43.4494 27.0743 42.8978 26.1126C42.3742 25.1323 42.1062 24.0057 42.1062 22.7203C42.1062 21.4327 42.3751 20.3192 42.8978 19.3651C43.4503 18.3773 44.1789 17.6304 45.0839 17.1102C46.0175 16.5877 47.0703 16.3223 48.254 16.3223C49.4388 16.3223 50.4778 16.5882 51.3846 17.1089L51.3846 17.1089L51.3892 17.1115C52.318 17.6318 53.0435 18.3767 53.5697 19.359Z" fill="#F0803C" stroke="#F0803C"/>
<rect x="35.0469" y="9.18793" width="26.3771" height="27.7707" stroke="#EDF060" stroke-width="5"/>
<rect x="41.2322" y="0.5" width="4.45688" height="5.6879" fill="#EDF060" stroke="#EDF060"/>
<rect x="48.7354" y="2.50635" width="3.09266" height="3.68153" fill="#EDF060" stroke="#EDF060"/>
</svg>
